PathFileType	4	(X/Y/Z)	 s03c0102.trc
DataRate	CameraRate	NumFrames	NumMarkers	Units	OrigDataRate	OrigDataStartFrame	OrigNumFrames
200	200	4	52	mm	200	1	2000
Frame#	Time	racr			lacr			c7			jug			rlel			rdr			llel			ldr			s2			lic			ric			lasi			rasi			rpsi			lpsi			rgt			lgt			rth1			rth2			rth3			rth4			rlfc			rmfc			rsh1			rsh2			rsh3			rsh4			rlmal			rmmal			rcal			rtoe			rmt5			rmt1			lth1			lth2			lth4			lth3			llfc			lmfc			lsh1			lsh2			lsh3			lsh4			llmal			lmmal			lcal			ltoe			lmt1			lmt5			SBIKE			LBIKE			RBIKE			
		X1	Y1	Z1	X2	Y2	Z2	X3	Y3	Z3	X4	Y4	Z4	X5	Y5	Z5	X6	Y6	Z6	X7	Y7	Z7	X8	Y8	Z8	X9	Y9	Z9	X10	Y10	Z10	X11	Y11	Z11	X12	Y12	Z12	X13	Y13	Z13	X14	Y14	Z14	X15	Y15	Z15	X16	Y16	Z16	X17	Y17	Z17	X18	Y18	Z18	X19	Y19	Z19	X20	Y20	Z20	X21	Y21	Z21	X22	Y22	Z22	X23	Y23	Z23	X24	Y24	Z24	X25	Y25	Z25	X26	Y26	Z26	X27	Y27	Z27	X28	Y28	Z28	X29	Y29	Z29	X30	Y30	Z30	X31	Y31	Z31	X32	Y32	Z32	X33	Y33	Z33	X34	Y34	Z34	X35	Y35	Z35	X36	Y36	Z36	X37	Y37	Z37	X38	Y38	Z38	X39	Y39	Z39	X40	Y40	Z40	X41	Y41	Z41	X42	Y42	Z42	X43	Y43	Z43	X44	Y44	Z44	X45	Y45	Z45	X46	Y46	Z46	X47	Y47	Z47	X48	Y48	Z48	X49	Y49	Z49	X50	Y50	Z50	X51	Y51	Z51	X52	Y52	Z52	
1	0.0050	491.956046	1397.683036	-63.625390	477.671416	1407.517918	-380.791096	431.490141	1466.424251	-219.199666	460.303623	1296.278230	-217.168950	537.776034	1137.110460	34.608008	745.598980	941.886868	-24.767318	550.736712	1152.787341	-453.831925	753.285862	927.689912	-410.492178	-103.488624	1216.577698	-233.308536	90.804962	1203.054104	-405.107923	72.184068	1224.190202	-43.539851	91.490905	1125.416199	-378.169269	72.761480	1163.260454	-82.070233	-70.562552	1263.479914	-188.639615	-60.890331	1259.463430	-271.009680	-5.475286	1152.075269	-25.897782	7.635686	1106.630866	-429.994828	111.390158	1064.988594	3.056407	200.323659	1062.027631	7.241117	274.717333	1018.065286	8.798492	211.778252	1094.057170	-7.420021	396.119164	952.840536	-8.074338	410.420322	944.624905	-136.203001	333.402059	797.737856	-1.698404	319.427412	712.311345	-22.501185	260.783567	646.000525	-33.055438	345.777493	703.497480	-48.451319	203.604211	526.761027	-65.224061	229.001320	547.354919	-151.555038	143.086111	474.381586	-110.667675	450.892405	507.860049	-106.174313	334.728401	473.555136	-39.050677	359.863566	495.432035	-153.078852	76.298974	963.543699	-458.618094	137.461944	902.395317	-465.671412	169.242142	920.651555	-461.038353	161.769933	816.546281	-457.797833	241.974271	712.916040	-447.303068	254.629599	702.051139	-323.466035	154.328909	562.844792	-462.473149	143.021601	481.333131	-441.954647	86.973530	409.411684	-428.474089	172.854330	471.213770	-418.543726	29.933499	297.236034	-401.909049	NaN	NaN	NaN	-40.745388	263.808744	-351.944335	261.754200	200.893710	-353.290986	168.287246	212.170561	-308.679997	139.589642	199.377348	-424.803523	-212.828025	946.135013	-227.743430	-4.245342	83.315974	-432.247701	-9.040205	81.143085	-32.243652	
2	0.0100	491.953067	1397.652832	-63.618892	477.654208	1407.500299	-380.778305	431.494244	1466.386431	-219.187506	460.255752	1296.251862	-217.110381	537.780812	1137.100261	34.614493	745.574306	941.866756	-24.784701	550.729760	1152.761160	-453.832048	753.259864	927.700487	-410.493538	-103.460873	1216.577044	-233.315907	90.765361	1203.056550	-405.065701	72.196158	1224.171526	-43.553229	91.480987	1125.424638	-378.159067	72.824865	1163.209881	-82.142756	-70.541605	1263.487061	-188.651016	-60.901528	1259.473952	-270.987963	-5.486526	1152.047909	-25.907446	7.612343	1106.640323	-430.003238	111.382879	1065.000908	3.052351	200.350522	1062.012933	7.236107	274.695685	1018.060971	8.778777	211.788393	1094.040679	-7.397312	396.122147	952.811587	-8.078038	410.412844	944.613886	-136.197191	333.387392	797.738178	-1.704441	319.419463	712.352089	-22.501566	260.804478	645.994908	-33.050098	345.801694	703.477293	-48.457647	203.627586	526.762201	-65.230827	229.002605	547.342774	-151.566811	143.075449	474.380708	-110.667479	450.884442	507.863484	-106.158371	334.715972	473.543445	-39.057771	359.879379	495.446496	-153.061202	76.284366	963.572265	-458.630396	137.450359	902.392706	-465.702046	169.249286	920.639825	-461.033400	161.762322	816.558684	-457.809849	241.963458	712.917864	-447.298183	254.646762	702.074915	-323.468822	154.331149	562.854981	-462.469873	143.017677	481.354959	-441.970021	86.983871	409.408607	-428.469876	172.851308	471.199703	-418.514896	29.923234	297.233006	-401.904523	NaN	NaN	NaN	-40.741660	263.823322	-351.952193	261.751969	200.906749	-353.304873	168.296750	212.187694	-308.748478	139.587728	199.368924	-424.803065	-212.822344	946.134788	-227.733719	-4.255530	83.331930	-432.252101	-9.031660	81.145162	-32.248566	
3	0.0150	491.943742	1397.624873	-63.605226	477.625801	1407.479368	-380.744762	431.480916	1466.386314	-219.179552	460.254339	1296.269915	-217.106148	537.786869	1137.101322	34.642060	745.576390	941.882098	-24.790458	550.703424	1152.758478	-453.825018	753.255081	927.716402	-410.469393	-103.482344	1216.586254	-233.304256	90.778143	1203.063976	-405.101881	72.171266	1224.183855	-43.543251	91.454682	1125.435159	-378.163950	72.793159	1163.235102	-82.106477	-70.553526	1263.483835	-188.645034	-60.906486	1259.465628	-270.981137	-5.503759	1152.050258	-25.899004	7.599840	1106.649412	-429.995929	111.375091	1064.989164	3.058812	200.345927	1062.002621	7.225793	274.683609	1018.061464	8.797778	211.767829	1094.038899	-7.402992	396.126008	952.825378	-8.069876	410.410119	944.623711	-136.202939	333.401551	797.733819	-1.696039	319.420146	712.345275	-22.504388	260.794317	645.979858	-33.051116	345.797038	703.484449	-48.451942	203.613190	526.769036	-65.215076	229.001993	547.348337	-151.566017	143.075594	474.377432	-110.678656	450.889283	507.867475	-106.154755	334.723739	473.528996	-39.072647	359.879315	495.447041	-153.061595	76.272242	963.580498	-458.626611	137.453586	902.416207	-465.689491	169.244389	920.655918	-461.019171	161.742399	816.565489	-457.814064	241.955676	712.927008	-447.299570	254.660601	702.073945	-323.447223	154.314187	562.869670	-462.484971	143.011331	481.356837	-441.977496	86.976283	409.414971	-428.464288	172.850637	471.205637	-418.509251	29.924493	297.224729	-401.913576	68.857249	308.187958	-314.599964	-40.743707	263.818531	-351.948926	261.747038	200.909474	-353.300479	168.277378	212.194887	-308.711257	139.579927	199.380095	-424.805545	-212.835566	946.133908	-227.742340	-4.264062	83.331671	-432.242538	-9.042727	81.140648	-32.257055	
4	0.0200	491.936241	1397.640420	-63.587106	477.548199	1406.526334	-376.987598	431.483084	1466.370906	-219.165945	460.037996	1296.936883	-217.970080	537.851046	1137.192618	34.571095	745.575294	941.862247	-24.791157	550.693888	1152.749996	-453.819486	753.369105	927.659620	-410.431615	-103.480985	1216.570705	-233.303901	90.100741	1203.472143	-406.002015	72.486001	1224.145311	-43.503934	91.769725	1124.828759	-376.935440	72.798814	1163.234692	-82.113543	-70.644250	1263.321810	-188.596132	-60.905807	1259.465404	-270.980016	-5.508681	1152.041446	-25.901504	7.639981	1106.506691	-429.993804	111.247229	1064.968410	3.061698	200.307538	1062.007650	7.247142	274.729007	1018.074254	9.080608	210.967144	1094.454973	-8.137313	396.112627	952.811050	-8.061720	410.912664	942.507146	-131.725096	333.396360	797.743424	-1.700085	319.425446	712.345688	-22.498046	260.796797	645.980840	-33.052149	347.349877	704.529373	-48.024075	203.607896	526.771516	-65.225078	230.004797	546.618696	-150.448555	143.071092	474.381848	-110.675857	450.881462	507.879391	-106.166927	334.726117	473.540383	-39.054384	359.862896	495.439524	-153.060991	76.280635	963.586396	-458.614854	137.439206	902.421255	-465.686998	169.686426	920.050623	-459.837101	161.744452	816.557180	-457.824873	242.525617	712.241272	-445.942446	254.643667	702.076464	-323.456561	154.940088	561.948116	-460.916917	142.786673	479.234581	-438.887167	86.969624	409.420571	-428.477270	173.185016	470.299468	-416.740822	29.549671	298.299865	-403.349380	68.879454	308.197520	-314.607136	-40.742738	263.815544	-351.959071	261.738954	200.911727	-353.307892	168.301938	212.192162	-308.730929	140.736474	197.182250	-421.898731	-212.882676	946.161521	-228.160649	-4.259819	83.321699	-432.255195	-9.034013	81.138459	-32.249312	
